<svg xmlns="http://www.w3.org/2000/svg" width="1024" height="1024" viewBox="0 0 1024 1024" role="img" aria-label="Sample face avatar">
  <defs>
    <linearGradient id="bg" x1="0" y1="0" x2="1" y2="1">
      <stop offset="0%" stop-color="#3f2a20"/>
      <stop offset="100%" stop-color="#1e1511"/>
    </linearGradient>
    <linearGradient id="shirt" x1="0" y1="0" x2="0" y2="1">
      <stop offset="0%" stop-color="#7c5639"/>
      <stop offset="100%" stop-color="#593c28"/>
    </linearGradient>
  </defs>

  <rect width="1024" height="1024" fill="url(#bg)"/>

  <circle cx="512" cy="392" r="212" fill="#6e4630"/>
  <ellipse cx="512" cy="372" rx="218" ry="182" fill="#1a1412"/>
  <ellipse cx="512" cy="430" rx="176" ry="190" fill="#7f5439"/>

  <ellipse cx="442" cy="420" rx="22" ry="14" fill="#1c1614"/>
  <ellipse cx="582" cy="420" rx="22" ry="14" fill="#1c1614"/>
  <circle cx="442" cy="418" r="5" fill="#f4f4f4"/>
  <circle cx="582" cy="418" r="5" fill="#f4f4f4"/>

  <path d="M438 514c26 22 122 24 148 0" fill="none" stroke="#3b261a" stroke-width="14" stroke-linecap="round"/>
  <path d="M424 360c30-20 58-24 84-12" fill="none" stroke="#231814" stroke-width="12" stroke-linecap="round"/>
  <path d="M516 348c26-10 54-8 86 10" fill="none" stroke="#231814" stroke-width="12" stroke-linecap="round"/>

  <path d="M262 830c34-140 144-228 250-228s216 88 250 228" fill="url(#shirt)"/>
  <rect x="414" y="628" width="196" height="82" rx="38" fill="#6e4630"/>
</svg>
